<?xml version="1.0" encoding="UTF-8"?>
<svg version="1.1" xmlns="http://www.w3.org/2000/svg" width="225" height="225">
<path d="M0 0 C1.8984375 0.85546875 1.8984375 0.85546875 4.8984375 2.85546875 C4.8984375 3.51546875 4.8984375 4.17546875 4.8984375 4.85546875 C5.49398437 5.11714844 6.08953125 5.37882812 6.703125 5.6484375 C10.64289247 7.81460858 13.09093668 11.40868881 15.8984375 14.85546875 C17.11853516 16.33853516 17.11853516 16.33853516 18.36328125 17.8515625 C31.85706373 34.58629877 31.85706373 34.58629877 32.5859375 44.04296875 C31.97105089 47.45279451 31.37390639 49.10840849 29.7109375 52.015625 C29.25871826 52.80686768 28.80649902 53.59811035 28.34057617 54.41333008 C26.49923477 57.53148448 24.60539623 60.61449507 22.69848633 63.69287109 C17.77504716 71.67800582 13.26401287 79.76785619 9.2109375 88.23046875 C8.78917236 89.10348633 8.36740723 89.97650391 7.93286133 90.87597656 C4.8549551 97.11286205 4.8549551 97.11286205 3.8984375 103.85546875 C5.60422789 105.99393225 7.10841749 107.53323347 9.1484375 109.29296875 C14.03438262 113.82548427 18.25616598 118.55012795 22.2109375 123.91796875 C22.6965918 124.56113037 23.18224609 125.20429199 23.68261719 125.86694336 C25.01171875 127.703125 25.01171875 127.703125 26.8984375 130.85546875 C26.5684375 131.84546875 26.2384375 132.83546875 25.8984375 133.85546875 C24.77308594 133.34886719 24.77308594 133.34886719 23.625 132.83203125 C9.08687821 126.49677919 -4.86036804 124.72213745 -19.9140625 130.41796875 C-21.03425781 130.87300781 -22.15445313 131.32804688 -23.30859375 131.796875 C-26.1015625 132.85546875 -26.1015625 132.85546875 -29.1015625 132.85546875 C-27.11565426 129.84589647 -25.11366811 126.84758815 -23.1015625 123.85546875 C-22.62589844 123.14390625 -22.15023437 122.43234375 -21.66015625 121.69921875 C-20.52627475 120.04747495 -19.31983429 118.44599026 -18.1015625 116.85546875 C-17.4415625 116.85546875 -16.7815625 116.85546875 -16.1015625 116.85546875 C-15.86695312 116.30375 -15.63234375 115.75203125 -15.390625 115.18359375 C-13.77308092 112.26221111 -11.73706055 110.05972378 -9.4765625 107.60546875 C-8.25066406 106.26742187 -8.25066406 106.26742187 -7 104.90234375 C-6.37351562 104.226875 -5.74703125 103.55140625 -5.1015625 102.85546875 C-10.01882371 86.10247415 -19.23631044 70.89579596 -28.67578125 56.31640625 C-29.96235169 54.09575042 -30.65997855 52.3636656 -31.1015625 49.85546875 C-31.7615625 49.85546875 -32.4215625 49.85546875 -33.1015625 49.85546875 C-34.8625384 39.52441011 -31.05332972 33.19941298 -25.484375 24.93359375 C-24.69804688 23.9178125 -23.91171875 22.90203125 -23.1015625 21.85546875 C-22.4415625 21.85546875 -21.7815625 21.85546875 -21.1015625 21.85546875 C-20.7303125 20.77265625 -20.7303125 20.77265625 -20.3515625 19.66796875 C-18.97886658 16.57940293 -17.37802954 14.34535457 -15.1015625 11.85546875 C-14.4415625 11.85546875 -13.7815625 11.85546875 -13.1015625 11.85546875 C-12.74191406 10.99888672 -12.74191406 10.99888672 -12.375 10.125 C-10.84165246 7.39225484 -9.04328189 5.64802773 -6.7265625 3.54296875 C-5.95570312 2.82496094 -5.18484375 2.10695312 -4.390625 1.3671875 C-2.1015625 -0.14453125 -2.1015625 -0.14453125 0 0 Z " fill="#D8252B" transform="translate(116.1015625,35.14453125)"/>
<path d="M0 0 C-0.66 1.32 -1.32 2.64 -2 4 C-2.66 4 -3.32 4 -4 4 C-4.24492187 4.55171875 -4.48984375 5.1034375 -4.7421875 5.671875 C-6.25647878 8.47472469 -8.13195147 10.76389766 -10.125 13.25 C-23.73328061 30.94104066 -29.38368392 51.99014559 -32.61450195 73.7043457 C-32.97336099 75.84136374 -33.44253578 77.90702719 -34 80 C-37.87752782 78.51964231 -39.14880894 76.54379877 -41.1875 73 C-45.25749385 66.32170901 -50.30626879 60.82804871 -55.71875 55.21875 C-57.125 53.6875 -57.125 53.6875 -59 51 C-58.14148666 39.25302473 -47.5995563 24.30484281 -39.40234375 16.5390625 C-28.20545676 7.05871656 -15.24616202 -1.19577741 0 0 Z " fill="#D72930" transform="translate(184,86)"/>
<path d="M0 0 C13.93584275 -0.49770867 26.66525292 4.71751808 37 14 C37.75023437 14.65742187 38.50046875 15.31484375 39.2734375 15.9921875 C45.57546114 21.86403888 49.82368527 28.5105337 54 36 C54.62777344 37.09699219 55.25554687 38.19398437 55.90234375 39.32421875 C60.16657485 47.18548833 60.16657485 47.18548833 59.50390625 50.42578125 C57.48207897 53.88651937 54.98678628 56.71598007 52.3125 59.6875 C46.50159038 66.29895423 40.80348623 72.99456707 37 81 C36.01 81 35.02 81 34 81 C33.97421875 80.18660156 33.9484375 79.37320313 33.921875 78.53515625 C32.56655229 51.15147699 21.59572719 21.2254776 1.25 2.2421875 C0.8375 1.83226563 0.425 1.42234375 0 1 C0 0.67 0 0.34 0 0 Z " fill="#D7292F" transform="translate(46,86)"/>
<path d="M0 0 C0.66 0 1.32 0 2 0 C1.77183594 0.67546875 1.54367188 1.3509375 1.30859375 2.046875 C0.87740234 3.38492188 0.87740234 3.38492188 0.4375 4.75 C0.14746094 5.63171875 -0.14257812 6.5134375 -0.44140625 7.421875 C-1.05123664 10.23647681 -1.18275463 11.39174198 0 14 C2.16337827 16.37603625 2.16337827 16.37603625 4.875 18.8125 C9.47467438 23.21272219 13.45892257 27.887677 17.25 33 C17.73968262 33.64686768 18.22936523 34.29373535 18.73388672 34.96020508 C20.078125 36.8125 20.078125 36.8125 22 40 C21.67 40.99 21.34 41.98 21 43 C20.24976563 42.66226563 19.49953125 42.32453125 18.7265625 41.9765625 C4.18844071 35.64131044 -9.75880554 33.8666687 -24.8125 39.5625 C-26.49279297 40.24505859 -26.49279297 40.24505859 -28.20703125 40.94140625 C-31 42 -31 42 -34 42 C-32.01409176 38.99042772 -30.01210561 35.9921194 -28 33 C-27.52433594 32.2884375 -27.04867187 31.576875 -26.55859375 30.84375 C-25.42471225 29.1920062 -24.21827179 27.59052151 -23 26 C-22.34 26 -21.68 26 -21 26 C-20.73832031 25.42636719 -20.47664063 24.85273438 -20.20703125 24.26171875 C-18.91503555 21.84079477 -17.45906754 19.90617073 -15.6875 17.8125 C-15.11386719 17.11769531 -14.54023437 16.42289063 -13.94921875 15.70703125 C-11.60268882 13.65205414 -10.08503979 13.25013836 -7 13 C-6.01 13.33 -5.02 13.66 -4 14 C-4.4125 13.113125 -4.825 12.22625 -5.25 11.3125 C-6 8 -6 8 -4.25 5.125 C-2 3 -2 3 0 3 C0 2.01 0 1.02 0 0 Z " fill="#D62026" transform="translate(121,126)"/>
<path d="M0 0 C2 2 2 2 2.125 4.4375 C0.80731057 7.4389037 0.30883485 7.59579753 -2.625 8.75 C-11.59273794 11.79832199 -22.77647955 12.17469607 -31.75 9.0390625 C-33.9375 7.9375 -33.9375 7.9375 -37 6 C-37 3.75 -37 3.75 -36 1 C-25.901724 -6.48750221 -10.83723204 -5.1119019 0 0 Z " fill="#D74147" transform="translate(133,170)"/>
<path d="M0 0 C0 3.10551666 -0.5393715 4.35261084 -2 7 C-0.68 7.66 0.64 8.32 2 9 C2 9.66 2 10.32 2 11 C0.35 11.33 -1.3 11.66 -3 12 C-3 11.34 -3 10.68 -3 10 C-5.15065784 11.78733227 -5.15065784 11.78733227 -5.4375 14.0625 C-5.623125 14.701875 -5.80875 15.34125 -6 16 C-6.99 16.33 -7.98 16.66 -9 17 C-7.42702086 18.86562642 -6.54489783 19.90238443 -4.09887695 20.34057617 C-3.05413208 20.3170105 -3.05413208 20.3170105 -1.98828125 20.29296875 C-1.23095703 20.28330078 -0.47363281 20.27363281 0.30664062 20.26367188 C1.09232422 20.23853516 1.87800781 20.21339844 2.6875 20.1875 C3.48478516 20.17396484 4.28207031 20.16042969 5.10351562 20.14648438 C7.06929967 20.11117089 9.03473582 20.05736447 11 20 C11 20.33 11 20.66 11 21 C10.00742188 21.08636719 9.01484375 21.17273438 7.9921875 21.26171875 C-0.66770636 22.12159678 -8.08286381 23.74185372 -16.20703125 26.9765625 C-19 28 -19 28 -22 28 C-20.01409176 24.99042772 -18.01210561 21.9921194 -16 19 C-15.52433594 18.2884375 -15.04867187 17.576875 -14.55859375 16.84375 C-13.42471225 15.1920062 -12.21827179 13.59052151 -11 12 C-10.34 12 -9.68 12 -9 12 C-8.74476562 11.42765625 -8.48953125 10.8553125 -8.2265625 10.265625 C-6.86912841 7.75826267 -5.28025896 5.8669544 -3.375 3.75 C-2.74335937 3.04359375 -2.11171875 2.3371875 -1.4609375 1.609375 C-0.97882813 1.07828125 -0.49671875 0.5471875 0 0 Z " fill="#D84E54" transform="translate(109,140)"/>
<path d="M0 0 C-0.66 1.32 -1.32 2.64 -2 4 C-2.66 4 -3.32 4 -4 4 C-4.226875 4.53625 -4.45375 5.0725 -4.6875 5.625 C-6.44384951 8.80315626 -8.58979175 11.28079069 -11 14 C-11.33 14 -11.66 14 -12 14 C-12 11.69 -12 9.38 -12 7 C-10.68 7 -9.36 7 -8 7 C-8 6.01 -8 5.02 -8 4 C-10.31 3.67 -12.62 3.34 -15 3 C-15.33 3.66 -15.66 4.32 -16 5 C-16.66 4.34 -17.32 3.68 -18 3 C-11.79485526 0.86380263 -6.57315478 -0.36517527 0 0 Z " fill="#D96166" transform="translate(184,86)"/>
<path d="M0 0 C0 3.10551666 -0.5393715 4.35261084 -2 7 C-0.68 7.66 0.64 8.32 2 9 C2 9.66 2 10.32 2 11 C0.35 11.33 -1.3 11.66 -3 12 C-3 11.34 -3 10.68 -3 10 C-5.1385485 12.1385485 -5.42655063 13.13275314 -6 16 C-7.65 15.67 -9.3 15.34 -11 15 C-11 14.01 -11 13.02 -11 12 C-10.34 12 -9.68 12 -9 12 C-8.61714844 11.14148438 -8.61714844 11.14148438 -8.2265625 10.265625 C-6.86912841 7.75826267 -5.28025896 5.8669544 -3.375 3.75 C-2.74335937 3.04359375 -2.11171875 2.3371875 -1.4609375 1.609375 C-0.97882813 1.07828125 -0.49671875 0.5471875 0 0 Z " fill="#D8484E" transform="translate(109,140)"/>
<path d="M0 0 C5.78898419 -0.20674944 10.42932723 0.40837921 16 2 C13 4 13 4 10 4 C10.33 6.64 10.66 9.28 11 12 C7.08060535 8.19588166 3.50897269 4.18423892 0 0 Z " fill="#D3585F" transform="translate(46,86)"/>
<path d="M0 0 C0.69921875 1.76171875 0.69921875 1.76171875 1 4 C-0.29296875 5.95703125 -0.29296875 5.95703125 -2.1875 7.8125 C-2.79980469 8.43769531 -3.41210938 9.06289062 -4.04296875 9.70703125 C-6 11 -6 11 -8.23828125 10.69921875 C-8.81964844 10.46847656 -9.40101563 10.23773438 -10 10 C-8.65527231 3.52085747 -8.65527231 3.52085747 -5.5625 1.0625 C-3 0 -3 0 0 0 Z " fill="#D42328" transform="translate(154,99)"/>
<path d="M0 0 C2.64752004 2.57784846 4.94432065 4.91648098 7 8 C6.67 8.99 6.34 9.98 6 11 C5.24976563 10.66226563 4.49953125 10.32453125 3.7265625 9.9765625 C-2.80103996 7.13204052 -8.95119128 5.04484554 -16 4 C-16 3.67 -16 3.34 -16 3 C-9.19796625 2.62365797 -4.24309927 3.22528921 2 6 C2 5.01 2 4.02 2 3 C0.68 2.67 -0.64 2.34 -2 2 C-1.34 2 -0.68 2 0 2 C0 1.34 0 0.68 0 0 Z " fill="#D87175" transform="translate(136,158)"/>
<path d="M0 0 C0 0.66 0 1.32 0 2 C0.66 2 1.32 2 2 2 C1.60196439 4.88575819 1.20990931 5.82189513 -1.0625 7.75 C-2.0215625 8.36875 -2.0215625 8.36875 -3 9 C-3.33 7.68 -3.66 6.36 -4 5 C-4.639375 4.87625 -5.27875 4.7525 -5.9375 4.625 C-6.618125 4.41875 -7.29875 4.2125 -8 4 C-8.33 3.34 -8.66 2.68 -9 2 C-6.98558063 -2.02883874 -3.72407517 -0.90585612 0 0 Z " fill="#D41F25" transform="translate(64,90)"/>
<path d="M0 0 C0.99 0.33 1.98 0.66 3 1 C1.43358249 5.30764815 -0.68336156 9.06171464 -3 13 C-5.0625 10.75 -5.0625 10.75 -7 8 C-6.75 5.6875 -6.75 5.6875 -6 4 C-4.02 3.67 -2.04 3.34 0 3 C0 2.01 0 1.02 0 0 Z " fill="#D92830" transform="translate(137,94)"/>
<path d="M0 0 C4.84455959 1.49740933 4.84455959 1.49740933 7 3 C7.9375 6.6875 7.9375 6.6875 8 10 C7.01 10.33 6.02 10.66 5 11 C2.02930459 8.45368965 0.5224249 5.57769851 -1 2 C-0.67 1.34 -0.34 0.68 0 0 Z " fill="#D22129" transform="translate(130,135)"/>
<path d="M0 0 C1.32 0 2.64 0 4 0 C2.59601721 4.10110762 0.62912962 6.98089159 -2.125 10.3125 C-2.84945312 11.19550781 -3.57390625 12.07851562 -4.3203125 12.98828125 C-5.15175781 13.98408203 -5.15175781 13.98408203 -6 15 C-7 12 -7 12 -6 9 C-5.01 9 -4.02 9 -3 9 C-3.33 7.35 -3.66 5.7 -4 4 C-3.01 4.33 -2.02 4.66 -1 5 C-0.67 3.35 -0.34 1.7 0 0 Z " fill="#D34D52" transform="translate(92,146)"/>
<path d="M0 0 C3.28465896 2.79196011 5.01321958 6.23196817 7 10 C7 10.66 7 11.32 7 12 C6.34 12 5.68 12 5 12 C4.34 11.01 3.68 10.02 3 9 C2.01 8.67 1.02 8.34 0 8 C0 8.66 0 9.32 0 10 C-0.66 10 -1.32 10 -2 10 C-2.33 9.01 -2.66 8.02 -3 7 C-2.01 6.67 -1.02 6.34 0 6 C0 4.02 0 2.04 0 0 Z " fill="#D54D54" transform="translate(140,62)"/>
<path d="M0 0 C1.65 0.33 3.3 0.66 5 1 C4.01 1.66 3.02 2.32 2 3 C2.66 5.31 3.32 7.62 4 10 C2.02 9.34 0.04 8.68 -2 8 C-2 7.34 -2 6.68 -2 6 C-3.32 5.67 -4.64 5.34 -6 5 C-5.38125 4.9175 -4.7625 4.835 -4.125 4.75 C-1.81562433 4.18741541 -1.81562433 4.18741541 -0.75 1.9375 C-0.5025 1.298125 -0.255 0.65875 0 0 Z " fill="#D81E26" transform="translate(108,168)"/>
<path d="M0 0 C1.98 0.495 1.98 0.495 4 1 C3.95875 1.78375 3.9175 2.5675 3.875 3.375 C3.71271266 6.16116119 3.71271266 6.16116119 6 8 C6 8.99 6 9.98 6 11 C6.66 11.33 7.32 11.66 8 12 C5 12 5 12 3.359375 10.64453125 C-1.027682 5.65052704 -1.027682 5.65052704 -0.875 2.0625 C-0.58625 1.381875 -0.2975 0.70125 0 0 Z " fill="#D4424A" transform="translate(126,132)"/>
<path d="M0 0 C0.33 0.99 0.66 1.98 1 3 C0.67 3.66 0.34 4.32 0 5 C1.32 5.33 2.64 5.66 4 6 C0.7321794 8.17854707 -2.38058265 9.49760034 -6 11 C-6 7.39426104 -5.18292538 6.58663434 -3 3.8125 C-2.443125 3.09707031 -1.88625 2.38164062 -1.3125 1.64453125 C-0.879375 1.10183594 -0.44625 0.55914062 0 0 Z " fill="#D2686E" transform="translate(94,158)"/>
<path d="M0 0 C1.15518918 0.90484792 2.29885406 1.8244206 3.4375 2.75 C4.07558594 3.26046875 4.71367188 3.7709375 5.37109375 4.296875 C7.18810554 6.19667629 7.60423197 7.43586908 8 10 C6.02 10.99 6.02 10.99 4 12 C4 11.34 4 10.68 4 10 C3.01 10.33 2.02 10.66 1 11 C1 10.34 1 9.68 1 9 C1.66 9 2.32 9 3 9 C2.67 7.02 2.34 5.04 2 3 C1.01 3 0.02 3 -1 3 C-0.67 2.01 -0.34 1.02 0 0 Z " fill="#D13940" transform="translate(82,100)"/>
<path d="M0 0 C1.3357457 3.77371512 0.72408671 6.85831347 0.0625 10.75 C-0.13214844 11.92046875 -0.32679688 13.0909375 -0.52734375 14.296875 C-0.68332031 15.18890625 -0.83929688 16.0809375 -1 17 C-1.33 17 -1.66 17 -2 17 C-2 14.03 -2 11.06 -2 8 C-2.66 8 -3.32 8 -4 8 C-4 5.69 -4 3.38 -4 1 C-2.68 0.67 -1.36 0.34 0 0 Z " fill="#DE696E" transform="translate(152,145)"/>
<path d="M0 0 C0.33 1.32 0.66 2.64 1 4 C0.01 4.33 -0.98 4.66 -2 5 C-2.39044206 6.31774196 -2.70955086 7.65667272 -3 9 C-4.375 12.1875 -4.375 12.1875 -6 15 C-6.99 15.33 -7.98 15.66 -9 16 C-7.51637716 9.73581469 -3.75837844 5.08486495 0 0 Z " fill="#D5686F" transform="translate(139,109)"/>
<path d="M0 0 C0.66 0 1.32 0 2 0 C3 3 3 3 2.3125 5.5625 C0.83913226 8.29875437 -0.13522966 8.94958421 -3 10 C-4 7 -4 7 -3.22265625 5.17578125 C-2.1484375 3.45052083 -1.07421875 1.72526042 0 0 Z " fill="#D13F47" transform="translate(91,60)"/>
<path d="M0 0 C2.49361571 1.20381448 4.68143083 2.45428722 7 4 C7 4.66 7 5.32 7 6 C7.99 6.33 8.98 6.66 10 7 C9.34 8.32 8.68 9.64 8 11 C6.66375099 9.35653302 5.33107149 7.71016314 4 6.0625 C3.2575 5.14597656 2.515 4.22945312 1.75 3.28515625 C0 1 0 1 0 0 Z " fill="#D35659" transform="translate(133,145)"/>
<path d="M0 0 C1 2 1 2 0.4375 3.8125 C-1.58442416 6.88934111 -4.10299291 8.73277706 -7 11 C-7.66 10.67 -8.32 10.34 -9 10 C-8.67 9.34 -8.34 8.68 -8 8 C-7.34 8 -6.68 8 -6 8 C-5.7525 7.4225 -5.505 6.845 -5.25 6.25 C-3.83316683 3.6997003 -2.12372463 1.98214299 0 0 Z " fill="#D36366" transform="translate(109,39)"/>
<path d="M0 0 C0 0.66 0 1.32 0 2 C0.66 2.33 1.32 2.66 2 3 C1.34 3 0.68 3 0 3 C0 3.99 0 4.98 0 6 C-1.65 5.67 -3.3 5.34 -5 5 C-5 3.68 -5 2.36 -5 1 C-2 0 -2 0 0 0 Z " fill="#CE4345" transform="translate(101,171)"/>
<path d="M0 0 C2.59487555 1.29743778 3.02269781 2.29362471 4 5 C3.625 7.75 3.625 7.75 3 10 C2.01 10 1.02 10 0 10 C0 6.7 0 3.4 0 0 Z " fill="#D78187" transform="translate(80,157)"/>
<path d="M0 0 C0.99 0.99 1.98 1.98 3 3 C2.01 3.495 2.01 3.495 1 4 C1 5.65 1 7.3 1 9 C-2 7 -2 7 -2.6875 4.375 C-2.790625 3.59125 -2.89375 2.8075 -3 2 C-2.01 1.34 -1.02 0.68 0 0 Z " fill="#D3252C" transform="translate(84,154)"/>
<path d="M0 0 C-0.33 1.32 -0.66 2.64 -1 4 C-2.65 4.33 -4.3 4.66 -6 5 C-6.33 4.34 -6.66 3.68 -7 3 C-8.32 3.33 -9.64 3.66 -11 4 C-10.67 3.34 -10.34 2.68 -10 2 C-8.34608154 1.60828247 -6.67654729 1.27942455 -5 1 C-2 0 -2 0 0 0 Z " fill="#CF3334" transform="translate(108,168)"/>
<path d="M0 0 C0.99 0 1.98 0 3 0 C3 0.66 3 1.32 3 2 C3.66 2.33 4.32 2.66 5 3 C5 3.99 5 4.98 5 6 C2.69 5.67 0.38 5.34 -2 5 C-2 2 -2 2 0 0 Z " fill="#CF1F27" transform="translate(133,158)"/>
<path d="M0 0 C0.66 0 1.32 0 2 0 C2 0.99 2 1.98 2 3 C3.32 3.33 4.64 3.66 6 4 C6.33 6.64 6.66 9.28 7 12 C3.76905045 10.38452522 2.55175342 7.1308505 1 4 C0.25 1.5625 0.25 1.5625 0 0 Z " fill="#D75F66" transform="translate(85,85)"/>
<path d="M0 0 C0.66 0 1.32 0 2 0 C1.7834375 0.67546875 1.566875 1.3509375 1.34375 2.046875 C1.0653125 2.93890625 0.786875 3.8309375 0.5 4.75 C0.2215625 5.63171875 -0.056875 6.5134375 -0.34375 7.421875 C-1.16445285 10.20267529 -1.16445285 10.20267529 -1 14 C-1.66 14 -2.32 14 -3 14 C-3.14285714 6.57142857 -3.14285714 6.57142857 -2 3 C-1.34 3 -0.68 3 0 3 C0 2.01 0 1.02 0 0 Z " fill="#D46266" transform="translate(121,126)"/>
<path d="M0 0 C0.66 0 1.32 0 2 0 C2 2.97 2 5.94 2 9 C1.01 8.67 0.02 8.34 -1 8 C-1.8125 6.1875 -1.8125 6.1875 -2 4 C-1.0625 1.75 -1.0625 1.75 0 0 Z " fill="#CE1C1F" transform="translate(148,153)"/>
<path d="M0 0 C0.66 0 1.32 0 2 0 C3.04449911 3.13349732 2.93423645 3.98968256 2 7 C0.35 6.67 -1.3 6.34 -3 6 C-3 5.01 -3 4.02 -3 3 C-2.34 3 -1.68 3 -1 3 C-0.67 2.01 -0.34 1.02 0 0 Z " fill="#D03F44" transform="translate(101,149)"/>
<path d="M0 0 C3.7952131 1.49097658 5.61042731 3.75700849 8 7 C6.68 7 5.36 7 4 7 C4 6.34 4 5.68 4 5 C3.01 5 2.02 5 1 5 C0.67 3.35 0.34 1.7 0 0 Z " fill="#D24E59" transform="translate(122,143)"/>
<path d="M0 0 C3.465 1.485 3.465 1.485 7 3 C6.67 3.99 6.34 4.98 6 6 C3.97954558 5.39816251 1.97888961 4.72693904 0 4 C-0.33 3.34 -0.66 2.68 -1 2 C-0.67 1.34 -0.34 0.68 0 0 Z " fill="#DA1F21" transform="translate(130,135)"/>
<path d="M0 0 C4.43458973 1.3937282 6.87378374 3.60582235 10 7 C8.35 6.67 6.7 6.34 5 6 C5 5.34 5 4.68 5 4 C3.35 4 1.7 4 0 4 C0 2.68 0 1.36 0 0 Z " fill="#DB767A" transform="translate(72,93)"/>
<path d="M0 0 C0.66 0 1.32 0 2 0 C2 0.66 2 1.32 2 2 C3.32 2.66 4.64 3.32 6 4 C5.67 4.99 5.34 5.98 5 7 C3.0625 6.3125 3.0625 6.3125 1 5 C0.25 2.375 0.25 2.375 0 0 Z " fill="#D2676C" transform="translate(145,159)"/>
<path d="M0 0 C2.64 0 5.28 0 8 0 C7.34 1.32 6.68 2.64 6 4 C5.34 4 4.68 4 4 4 C3.67 4.66 3.34 5.32 3 6 C2.814375 5.071875 2.814375 5.071875 2.625 4.125 C2.12802644 1.80879168 2.12802644 1.80879168 0 0 Z " fill="#DA757C" transform="translate(176,86)"/>
<path d="M0 0 C0.66 0.33 1.32 0.66 2 1 C2 2.32 2 3.64 2 5 C1.01 5.33 0.02 5.66 -1 6 C-1 5.34 -1 4.68 -1 4 C-2.32 4.33 -3.64 4.66 -5 5 C-3.35 3.35 -1.7 1.7 0 0 Z " fill="#DD3741" transform="translate(115,135)"/>
<path d="M0 0 C3.0916909 2.52956528 3.90931332 5.22454612 5 9 C4.34 9.66 3.68 10.32 3 11 C3 9.68 3 8.36 3 7 C2.34 7 1.68 7 1 7 C0.67 4.69 0.34 2.38 0 0 Z " fill="#D25157" transform="translate(96,117)"/>
<path d="M0 0 C4.875 4.625 4.875 4.625 6 8 C3.03 7.505 3.03 7.505 0 7 C0 4.69 0 2.38 0 0 Z " fill="#D75F64" transform="translate(130,150)"/>
<path d="M0 0 C0.33 0.66 0.66 1.32 1 2 C2.32 1.67 3.64 1.34 5 1 C5 1.66 5 2.32 5 3 C5.99 3.33 6.98 3.66 8 4 C7.67 4.66 7.34 5.32 7 6 C5.68 5.67 4.36 5.34 3 5 C3 4.34 3 3.68 3 3 C1.68 2.67 0.36 2.34 -1 2 C-0.67 1.34 -0.34 0.68 0 0 Z " fill="#D42029" transform="translate(137,146)"/>
<path d="M0 0 C1.32 0 2.64 0 4 0 C3.6875 2.375 3.6875 2.375 3 5 C2.01 5.66 1.02 6.32 0 7 C0 4.69 0 2.38 0 0 Z " fill="#D24C51" transform="translate(172,93)"/>
<path d="M0 0 C2.98704569 0.49784095 4.39324263 1.26216175 7 3 C6.67 3.99 6.34 4.98 6 6 C5.01 5.67 4.02 5.34 3 5 C3 4.01 3 3.02 3 2 C1.68 1.67 0.36 1.34 -1 1 C-0.67 0.67 -0.34 0.34 0 0 Z " fill="#D56164" transform="translate(114,35)"/>
<path d="M0 0 C0.33 0 0.66 0 1 0 C1 2.64 1 5.28 1 8 C1.66 8 2.32 8 3 8 C3.33 7.34 3.66 6.68 4 6 C3.67 7.65 3.34 9.3 3 11 C2.01 10.67 1.02 10.34 0 10 C0 6.7 0 3.4 0 0 Z " fill="#C82027" transform="translate(84,74)"/>
<path d="M0 0 C2.4375 0.75 2.4375 0.75 5 2 C5.6875 4.0625 5.6875 4.0625 6 6 C6.66 6.33 7.32 6.66 8 7 C7.01 7 6.02 7 5 7 C3.61328125 5.46875 3.61328125 5.46875 2.3125 3.5 C1.87550781 2.8503125 1.43851562 2.200625 0.98828125 1.53125 C0.49908203 0.77328125 0.49908203 0.77328125 0 0 Z " fill="#D4595F" transform="translate(126,137)"/>
<path d="M0 0 C0.99 0.33 1.98 0.66 3 1 C3 2.32 3 3.64 3 5 C3.66 5 4.32 5 5 5 C5 6.65 5 8.3 5 10 C2.35534962 6.8745041 1.15585285 3.91211733 0 0 Z " fill="#D56F72" transform="translate(65,110)"/>
<path d="M0 0 C1.65 0 3.3 0 5 0 C5 0.99 5 1.98 5 3 C3.02 3.33 1.04 3.66 -1 4 C-0.67 2.68 -0.34 1.36 0 0 Z " fill="#D62023" transform="translate(171,90)"/>
<path d="M0 0 C2.375 0.1875 2.375 0.1875 5 1 C6.375 3.4375 6.375 3.4375 7 6 C6.67 6.66 6.34 7.32 6 8 C4.02 5.36 2.04 2.72 0 0 Z " fill="#DB7177" transform="translate(50,90)"/>
<path d="M0 0 C0.99 0.33 1.98 0.66 3 1 C1.92598892 3.91517292 1.22189824 5.77810176 -1 8 C-1.33 6.35 -1.66 4.7 -2 3 C-1.34 3 -0.68 3 0 3 C0 2.01 0 1.02 0 0 Z " fill="#D5585D" transform="translate(137,94)"/>
<path d="M0 0 C1.0625 1.875 1.0625 1.875 2 4 C1.67 4.66 1.34 5.32 1 6 C-0.32 6 -1.64 6 -3 6 C-2.625 3.5625 -2.625 3.5625 -2 1 C-1.34 0.67 -0.68 0.34 0 0 Z " fill="#CC1D25" transform="translate(158,94)"/>
<path d="M0 0 C2.475 0.99 2.475 0.99 5 2 C4.67 2.99 4.34 3.98 4 5 C3.01 5 2.02 5 1 5 C0.67 3.35 0.34 1.7 0 0 Z " fill="#CF2127" transform="translate(160,108)"/>
<path d="M0 0 C1.32 0.66 2.64 1.32 4 2 C3.67 3.65 3.34 5.3 3 7 C1.68 5.35 0.36 3.7 -1 2 C-0.67 1.34 -0.34 0.68 0 0 Z " fill="#D23D3F" transform="translate(131,100)"/>
<path d="" fill="#FFFFFF" transform="translate(0,0)"/>
</svg>
